<?xml version="1.0" encoding="UTF-8"?>
<svg width="147px" height="77px" viewBox="0 0 147 77" version="1.1" xmlns="http://www.w3.org/2000/svg" xmlns:xlink="http://www.w3.org/1999/xlink">
    <!-- Generator: Sketch 52.6 (67491) - http://www.bohemiancoding.com/sketch -->
    <title>branding / logos / log-new</title>
    <desc>Created with Sketch.</desc>
    <g id="Document-Symbols" stroke="none" stroke-width="1" fill="none" fill-rule="evenodd">
        <g id="modules-/-header" transform="translate(-167.000000, -19.000000)">
            <g id="branding-/-logos-/-Tungsten-Network" transform="translate(165.000000, 18.000000)">
                <path d="M10.991716,69.3320315 L7.85367462,69.3320315 L7.85367462,77.8594003 L5.74288443,77.8594003 L5.74288443,69.3320315 L2.64705882,69.3320315 L2.64705882,67.6237457 L10.991716,67.6237457 L10.991716,69.3320315 Z M19.9485024,67.6237457 L19.9485024,74.365499 C19.9485024,75.4856152 19.5978802,76.3713841 18.8966253,77.0228324 C18.1953704,77.6742807 17.2373157,78 16.0224327,78 C14.8263122,78 13.8764661,77.6836539 13.1728659,77.0509524 C12.4692657,76.4182508 12.1104349,75.5488849 12.0963629,74.4428288 L12.0963629,67.6237457 L14.2071531,67.6237457 L14.2071531,74.379559 C14.2071531,75.049754 14.3678061,75.5383329 14.6891169,75.8453103 C15.0104276,76.1522878 15.4548618,76.3057742 16.0224327,76.3057742 C17.2091717,76.3057742 17.8119136,75.6824553 17.8306762,74.4357988 L17.8306762,67.6237457 L19.9485024,67.6237457 Z M30.0099356,77.8594003 L27.8991454,77.8594003 L23.7901405,71.124677 L23.7901405,77.8594003 L21.6793504,77.8594003 L21.6793504,67.6237457 L23.7901405,67.6237457 L27.9061814,74.372529 L27.9061814,67.6237457 L30.0099356,67.6237457 L30.0099356,77.8594003 Z M39.9587934,76.5658836 C39.5788493,77.0204914 39.0417758,77.3731586 38.3475569,77.6238959 C37.653338,77.8746332 36.8840799,78 36.0397596,78 C35.1532233,78 34.3757567,77.8066774 33.7073365,77.4200264 C33.0389162,77.0333755 32.5229504,76.4721541 32.1594236,75.7363456 C31.7958969,75.0005371 31.6094456,74.1358579 31.6000642,73.142282 L31.6000642,72.4463138 C31.6000642,71.4246179 31.7724437,70.5400206 32.1172078,69.7924953 C32.461972,69.0449701 32.9591753,68.4732039 33.6088329,68.0771796 C34.2584905,67.6811553 35.01954,67.4831461 35.8920043,67.4831461 C37.1068874,67.4831461 38.0567335,67.7725441 38.7415711,68.3513489 C39.4264086,68.9301537 39.8321454,69.7725715 39.9587934,70.8786277 L37.9042909,70.8786277 C37.8104776,70.2927928 37.6029186,69.8639682 37.2816078,69.5921408 C36.9602971,69.3203135 36.5182082,69.1844019 35.955328,69.1844019 C35.2376558,69.1844019 34.6912011,69.4538818 34.3159476,69.9928498 C33.9406942,70.5318179 33.7507249,71.3332279 33.7460343,72.3971039 L33.7460343,73.0508923 C33.7460343,74.1241416 33.9500753,74.9349249 34.3581634,75.4832662 C34.7662516,76.0316076 35.3643028,76.3057742 36.1523351,76.3057742 C36.945058,76.3057742 37.5102751,76.1370563 37.8480032,75.7996155 L37.8480032,74.0350898 L35.9271841,74.0350898 L35.9271841,72.4814637 L39.9587934,72.4814637 L39.9587934,76.5658836 Z M46.9806888,75.173947 C46.9806888,74.7755793 46.8399708,74.4697781 46.5585307,74.2565343 C46.2770906,74.0432904 45.770506,73.8183332 45.0387618,73.581656 C44.3070175,73.3449787 43.7277287,73.1118199 43.3008779,72.8821727 C42.1375921,72.2541578 41.555958,71.408225 41.555958,70.344349 C41.555958,69.7913209 41.7119204,69.2980554 42.0238498,68.8645376 C42.3357792,68.4310199 42.7837313,68.0924124 43.3677196,67.8487052 C43.9517078,67.6049979 44.6072188,67.4831461 45.3342724,67.4831461 C46.0660167,67.4831461 46.7180098,67.6155427 47.2902713,67.8803401 C47.8625329,68.1451374 48.306967,68.5188944 48.6235871,69.0016223 C48.9402072,69.4843502 49.0985149,70.0326833 49.0985149,70.6466382 L46.9877247,70.6466382 C46.9877247,70.1779704 46.8399709,69.8135866 46.5444588,69.5534759 C46.2489467,69.2933653 45.8338288,69.1633119 45.2990926,69.1633119 C44.7831191,69.1633119 44.3820729,69.2722755 44.0959422,69.4902061 C43.8098114,69.7081366 43.6667482,69.9951914 43.6667482,70.351379 C43.6667482,70.6841331 43.834437,70.9629863 44.1698198,71.1879469 C44.5052026,71.4129075 44.998888,71.6238048 45.6508909,71.8206453 C46.851702,72.1815196 47.7264985,72.6290906 48.2753067,73.163372 C48.8241149,73.6976533 49.0985149,74.3631517 49.0985149,75.159887 C49.0985149,76.0456693 48.7631372,76.7404589 48.0923716,77.2442769 C47.421606,77.7480948 46.5186659,78 45.3835242,78 C44.5954919,78 43.8778304,77.8558868 43.2305182,77.5676561 C42.583206,77.2794253 42.0895205,76.8845786 41.7494471,76.383104 C41.4093736,75.8816294 41.2393394,75.30049 41.2393394,74.6396683 L43.3571656,74.6396683 C43.3571656,75.7691578 44.0326117,76.3338941 45.3835242,76.3338941 C45.8854257,76.3338941 46.2770906,76.2319604 46.5585307,76.0280899 C46.8399708,75.8242194 46.9806888,75.5395079 46.9806888,75.173947 Z M58.2382364,69.3320315 L55.100195,69.3320315 L55.100195,77.8594003 L52.9894048,77.8594003 L52.9894048,69.3320315 L49.8935792,69.3320315 L49.8935792,67.6237457 L58.2382364,67.6237457 L58.2382364,69.3320315 Z M65.6048942,73.4234813 L61.552177,73.4234813 L61.552177,76.1651745 L66.3084909,76.1651745 L66.3084909,77.8594003 L59.4413868,77.8594003 L59.4413868,67.6237457 L66.294419,67.6237457 L66.294419,69.3320315 L61.552177,69.3320315 L61.552177,71.7714354 L65.6048942,71.7714354 L65.6048942,73.4234813 Z M75.8774064,77.8594003 L73.7666163,77.8594003 L69.6576114,71.124677 L69.6576114,77.8594003 L67.5468212,77.8594003 L67.5468212,67.6237457 L69.6576114,67.6237457 L73.7736522,74.372529 L73.7736522,67.6237457 L75.8774064,67.6237457 L75.8774064,77.8594003 Z M89.2316724,77.8594003 L88.3662484,77.8594003 L82.4771438,69.1000421 L82.4771438,77.8594003 L81.6046838,77.8594003 L81.6046838,67.6237457 L82.4771438,67.6237457 L88.3732844,76.390134 L88.3732844,67.6237457 L89.2316724,67.6237457 L89.2316724,77.8594003 Z M97.491898,72.9524725 L92.7004042,72.9524725 L92.7004042,77.1282822 L98.2095666,77.1282822 L98.2095666,77.8594003 L91.8349803,77.8594003 L91.8349803,67.6237457 L98.1743868,67.6237457 L98.1743868,68.3618939 L92.7004042,68.3618939 L92.7004042,72.2213543 L97.491898,72.2213543 L97.491898,72.9524725 Z M107.124137,68.3618939 L103.61319,68.3618939 L103.61319,77.8594003 L102.747766,77.8594003 L102.747766,68.3618939 L99.2438538,68.3618939 L99.2438538,67.6237457 L107.124137,67.6237457 L107.124137,68.3618939 Z M110.775804,75.0966172 L111.092423,76.6853933 L111.479401,75.166917 L113.702767,67.6237457 L114.483759,67.6237457 L116.678981,75.166917 L117.058923,76.6994532 L117.396649,75.0966172 L119.247109,67.6237457 L120.133641,67.6237457 L117.509225,77.8594003 L116.678981,77.8594003 L114.357112,69.8522502 L114.096781,68.8399327 L113.843486,69.8522502 L111.465329,77.8594003 L110.635085,77.8594003 L108.017705,67.6237457 L108.904237,67.6237457 L110.775804,75.0966172 Z M129.371866,73.2969417 C129.371866,74.238964 129.208868,75.0661504 128.882866,75.7785255 C128.556865,76.4909006 128.091323,77.0392338 127.486227,77.4235414 C126.88113,77.8078491 126.182231,78 125.389508,78 C124.193388,78 123.227125,77.572347 122.49069,76.7170282 C121.754255,75.8617094 121.386043,74.7076321 121.386043,73.2547618 L121.386043,72.2002644 C121.386043,71.2676154 121.551386,70.4416007 121.882079,69.7221955 C122.212771,69.0027904 122.680658,68.4497706 123.285754,68.0631196 C123.89085,67.6764687 124.587404,67.4831461 125.375436,67.4831461 C126.163469,67.4831461 126.85885,67.6729537 127.461601,68.0525747 C128.064352,68.4321956 128.529893,68.9688123 128.85824,69.6624407 C129.186587,70.3560691 129.357794,71.1598224 129.371866,72.0737247 L129.371866,73.2969417 Z M128.506442,72.1862044 C128.506442,70.953608 128.227351,69.9881667 127.669162,69.2898516 C127.110972,68.5915365 126.346405,68.2423842 125.375436,68.2423842 C124.423231,68.2423842 123.664526,68.5927081 123.099301,69.2933666 C122.534075,69.994025 122.251467,70.9723545 122.251467,72.2283843 L122.251467,73.2969417 C122.251467,74.5107914 122.532903,75.4727177 123.095783,76.1827495 C123.658663,76.8927813 124.423231,77.2477919 125.389508,77.2477919 C126.369858,77.2477919 127.134425,76.8974679 127.683234,76.1968095 C128.232042,75.496151 128.506442,74.5201649 128.506442,73.2688217 L128.506442,72.1862044 Z M135.380582,73.5992309 L132.404368,73.5992309 L132.404368,77.8594003 L131.531908,77.8594003 L131.531908,67.6237457 L134.85992,67.6237457 C135.952846,67.6237457 136.806535,67.8885391 137.421012,68.4181337 C138.03549,68.9477284 138.342724,69.6882125 138.342724,70.6396082 C138.342724,71.2957432 138.15041,71.8745393 137.765775,72.3760139 C137.38114,72.8774885 136.865174,73.2242975 136.217862,73.4164514 L138.778954,77.7680106 L138.778954,77.8594003 L137.857242,77.8594003 L135.380582,73.5992309 Z M132.404368,72.8610827 L135.056927,72.8610827 C135.783981,72.8610827 136.36796,72.654872 136.808883,72.2424443 C137.249806,71.8300166 137.470264,71.2957432 137.470264,70.6396082 C137.470264,69.9178598 137.240425,69.3578101 136.780739,68.9594424 C136.321054,68.5610747 135.676097,68.3618939 134.845848,68.3618939 L132.404368,68.3618939 L132.404368,72.8610827 Z M143.00757,72.7767229 L141.565197,74.1967794 L141.565197,77.8594003 L140.699773,77.8594003 L140.699773,67.6237457 L141.565197,67.6237457 L141.565197,73.142282 L146.814029,67.6237457 L147.904604,67.6237457 L143.612664,72.1791744 L148.235294,77.8594003 L147.179899,77.8594003 L143.00757,72.7767229 Z" id="TUNGSTEN-NETWORK" fill="#4A4A4A"></path>
                <g id="Logo" stroke-width="1" transform="translate(45.000000, 1.000000)">
                    <g id="Circle" fill="#005095">
                        <path d="M60,29.7977528 C60,13.3411989 46.56825,0 30,0 C13.43175,0 0,13.3411989 0,29.7977528 C0,46.2543067 13.43175,59.5955056 30,59.5955056 C46.56825,59.5955056 60,46.2543067 60,29.7977528" id="Mask"></path>
                    </g>
                    <g id="Shape" transform="translate(15.000000, 16.000000)" stroke="#FFFFFF">
                        <polygon id="Stroke-3" points="0 10.2560429 0 3.30732048 5.84396666 0 15.194637 5.78759614 24.1560333 0 30 3.30732048 30 10.2560429 19.8699722 16.8689662 19.8699722 27.7004193 14.805363 30.5955056 9.68410262 27.8781953 9.68410262 16.8689662"></polygon>
                        <polyline id="Stroke-5" points="0 3.25221311 14.7768125 12.5520023 30 3.13800058"></polyline>
                        <path d="M15.0105582,12.5520023 L14.9894418,30.5955056" id="Stroke-7"></path>
                    </g>
                </g>
            </g>
        </g>
    </g>
</svg>